<svg width="185" height="44" viewBox="0 0 185 44" fill="none" xmlns="http://www.w3.org/2000/svg">
<g clip-path="url(#clip0_2961_20931)">
<path d="M8.43359 0H20.5417L14.4877 8.49782L8.43359 0Z" fill="#FDC62C"/>
<path d="M8.43359 0V8.49782H14.4877L8.43359 0Z" fill="#F8B131"/>
<path d="M14.4883 8.49782L20.5423 0V8.49782H14.4883Z" fill="#EE7461"/>
<path d="M20.5417 20.6254H8.43359L14.4877 8.4978L20.5417 20.6254Z" fill="#E84B93"/>
<path d="M20.5423 20.6254V8.4978H14.4883L20.5423 20.6254Z" fill="#CF1D5B"/>
<path d="M14.4877 8.4978L8.43359 20.6254V8.4978H14.4877Z" fill="#E94846"/>
<path d="M0 8.4978H8.43385V20.6253L0 8.4978Z" fill="#F18407"/>
<path d="M8.43385 20.6253H0V8.4978L8.43385 20.6253Z" fill="#ED6E19"/>
<path d="M20.542 20.6253H28.9758V8.4978L20.542 20.6253Z" fill="#E2071E"/>
<path d="M28.9758 8.4978H20.542V20.6253L28.9758 8.4978Z" fill="#B7154B"/>
<path d="M8.43359 20.6252L20.5347 29.5386L20.5417 20.6252H8.43359Z" fill="#EE8AB7"/>
<path d="M8.43368 20.6252L8.44761 30.5525C8.46724 31.6225 8.56207 32.6287 8.72827 33.5743L20.5347 29.5386L8.43368 20.6252Z" fill="#8D6CAC"/>
<path d="M20.5349 29.5386L8.72852 33.5743C9.21658 36.3505 10.3265 38.5986 12.0062 40.3629C13.1865 41.721 14.9788 42.7445 17.5155 43.3609L20.5349 29.5386Z" fill="#7C61A7"/>
<path d="M17.5174 43.3614L29.5211 33.5891C25.7052 34.8493 22.933 34.565 21.4131 32.4281C20.8169 31.5899 20.5342 30.5678 20.535 29.5386L17.5156 43.3609L17.5174 43.3614Z" fill="#3B529F"/>
<path d="M31.1533 42.3101L29.5209 33.5891L26.5605 43.7269C28.32 43.4606 29.859 42.9956 31.1533 42.3101Z" fill="#56AFE3"/>
<path d="M22.4837 43.9998C23.9503 44.0061 25.3106 43.9164 26.5604 43.7272L29.5208 33.5894L17.5098 43.3599C18.9271 43.7048 20.5742 43.9241 22.4837 43.9998Z" fill="#37398C"/>
<path d="M59.668 12.501V16.3473H53.3467V36.2625H48.5887V16.3473H42.2666V12.501H59.668Z" fill="#18213B"/>
<path d="M70.6125 16.3473V22.3047H78.6V26.0837H70.6125V32.3819H79.6198V36.2624H65.8545V12.4668H79.6198V16.3473H70.6125Z" fill="#18213B"/>
<path d="M91.0898 35.65C89.7639 35.0823 88.7159 34.2653 87.9458 33.199C87.1749 32.1319 86.7783 30.8727 86.7559 29.42H91.854C91.9221 30.3957 92.2673 31.1678 92.8904 31.7346C93.5136 32.3023 94.3691 32.5857 95.4569 32.5857C96.5671 32.5857 97.4393 32.3197 98.0741 31.7861C98.708 31.2525 99.0258 30.5552 99.0258 29.6925C99.0258 28.9893 98.8101 28.4101 98.3802 27.9563C97.9488 27.5025 97.4111 27.1452 96.7655 26.8842C96.1199 26.6232 95.2304 26.3339 94.0978 26.0157C92.556 25.5619 91.3047 25.1139 90.3413 24.6709C89.3788 24.2288 88.5515 23.5597 87.8603 22.6621C87.1691 21.7661 86.8239 20.5684 86.8239 19.0708C86.8239 17.6638 87.1749 16.4387 87.8777 15.3949C88.5797 14.351 89.5655 13.5506 90.8342 12.9946C92.103 12.4386 93.5534 12.1602 95.1848 12.1602C97.6318 12.1602 99.6208 12.7561 101.15 13.9479C102.679 15.1389 103.523 16.8019 103.682 18.9346H98.4474C98.4018 18.1176 98.0566 17.4428 97.4111 16.9091C96.7655 16.3764 95.91 16.1096 94.8454 16.1096C93.916 16.1096 93.1742 16.3473 92.6191 16.8243C92.0632 17.3006 91.786 17.9937 91.786 18.9005C91.786 19.5363 91.9951 20.064 92.4149 20.4838C92.834 20.9043 93.355 21.2443 93.9782 21.5052C94.6014 21.7661 95.4793 22.0671 96.6128 22.407C98.1529 22.8616 99.4108 23.3154 100.385 23.7692C101.359 24.223 102.197 24.9037 102.9 25.8112C103.602 26.7196 103.954 27.9106 103.954 29.3858C103.954 30.6574 103.625 31.8368 102.968 32.9264C102.311 34.016 101.348 34.8837 100.08 35.5303C98.8101 36.1777 97.3032 36.501 95.559 36.501C93.9044 36.501 92.415 36.2176 91.0898 35.65Z" fill="#18213B"/>
<path d="M115.068 34.9351C113.21 33.8912 111.738 32.4442 110.65 30.5942C109.562 28.7449 109.019 26.6514 109.019 24.3134C109.019 21.9988 109.562 19.9169 110.65 18.0668C111.738 16.2176 113.21 14.7707 115.068 13.7259C116.926 12.6829 118.965 12.1602 121.186 12.1602C123.429 12.1602 125.474 12.683 127.321 13.7259C129.167 14.7706 130.629 16.2176 131.706 18.0668C132.781 19.9169 133.32 21.9988 133.32 24.3134C133.32 26.6514 132.781 28.7449 131.706 30.5942C130.629 32.4442 129.162 33.8912 127.304 34.9351C125.446 35.979 123.406 36.5009 121.186 36.5009C118.965 36.5009 116.926 35.9789 115.068 34.9351ZM124.959 31.2749C126.046 30.6282 126.896 29.7041 127.508 28.5006C128.119 27.2979 128.425 25.9025 128.425 24.3134C128.425 22.7252 128.119 21.3347 127.508 20.1429C126.896 18.9519 126.046 18.0385 124.959 17.4028C123.871 16.7678 122.614 16.4495 121.186 16.4495C119.758 16.4495 118.495 16.7678 117.396 17.4028C116.297 18.0386 115.442 18.9519 114.83 20.1429C114.219 21.3347 113.913 22.7252 113.913 24.3134C113.913 25.9025 114.219 27.2979 114.83 28.5006C115.442 29.7041 116.297 30.6282 117.396 31.2749C118.495 31.9223 119.758 32.2456 121.186 32.2456C122.614 32.2456 123.871 31.9223 124.959 31.2749Z" fill="#18213B"/>
<path d="M157.133 31.782V36.2625H155.653C152.178 36.2625 149.666 34.8837 148.117 32.1268L145.331 27.7843H143.094V36.2625H138.346V12.4819H148.702C153.279 12.4819 156.754 15.8246 156.754 20.2703C156.754 23.8898 154.346 26.7156 150.871 27.5425L152.66 29.9902C153.486 31.1621 154.69 31.7821 156.17 31.7821L157.133 31.782ZM143.094 23.6479H148.599C150.457 23.6479 151.869 22.2009 151.869 20.3052C151.869 18.4095 150.457 16.9625 148.599 16.9625H143.094V23.6479Z" fill="#18213B"/>
<path d="M166.748 34.9351C164.89 33.8912 163.418 32.4442 162.331 30.5942C161.243 28.7449 160.699 26.6514 160.699 24.3134C160.699 21.9988 161.243 19.9169 162.331 18.0668C163.418 16.2176 164.89 14.7707 166.748 13.7259C168.606 12.6829 170.646 12.1602 172.866 12.1602C175.11 12.1602 177.155 12.683 179.002 13.7259C180.848 14.7706 182.309 16.2176 183.385 18.0668C184.462 19.9169 185 21.9988 185 24.3134C185 26.6514 184.462 28.7449 183.385 30.5942C182.309 32.4442 180.842 33.8912 178.984 34.9351C177.126 35.979 175.087 36.5009 172.866 36.5009C170.646 36.5009 168.606 35.9789 166.748 34.9351ZM176.639 31.2749C177.727 30.6282 178.577 29.7041 179.188 28.5006C179.8 27.2979 180.106 25.9025 180.106 24.3134C180.106 22.7252 179.8 21.3347 179.188 20.1429C178.577 18.9519 177.727 18.0385 176.639 17.4028C175.551 16.7678 174.294 16.4495 172.866 16.4495C171.439 16.4495 170.175 16.7678 169.077 17.4028C167.977 18.0386 167.123 18.9519 166.511 20.1429C165.899 21.3347 165.593 22.7252 165.593 24.3134C165.593 25.9025 165.899 27.2979 166.511 28.5006C167.123 29.7041 167.977 30.6282 169.077 31.2749C170.175 31.9223 171.439 32.2456 172.866 32.2456C174.294 32.2456 175.552 31.9223 176.639 31.2749Z" fill="#18213B"/>
</g>
<defs>
<clipPath id="clip0_2961_20931">
<rect width="185" height="44" fill="white"/>
</clipPath>
</defs>
</svg>