<?xml version="1.0" encoding="UTF-8" standalone="no"?>
<svg
   width="185"
   height="44"
   viewBox="0 0 185 44"
   fill="none"
   version="1.1"
   id="svg22"
   sodipodi:docname="tesoroLogo.svg"
   xmlns:inkscape="http://www.inkscape.org/namespaces/inkscape"
   xmlns:sodipodi="http://sodipodi.sourceforge.net/DTD/sodipodi-0.dtd"
   xmlns="http://www.w3.org/2000/svg"
   xmlns:svg="http://www.w3.org/2000/svg">
  <sodipodi:namedview
     id="namedview22"
     pagecolor="#505050"
     bordercolor="#eeeeee"
     borderopacity="1"
     inkscape:showpageshadow="0"
     inkscape:pageopacity="0"
     inkscape:pagecheckerboard="0"
     inkscape:deskcolor="#505050" />
  <g
     clip-path="url(#clip0_2961_20931)"
     id="g22">
    <path
       d="M 8.43359,0 H 20.5417 l -6.054,8.49782 z"
       fill="#fdc62c"
       id="path1" />
    <path
       d="M 8.43359,0 V 8.49782 H 14.4877 Z"
       fill="#f8b131"
       id="path2" />
    <path
       d="M 14.4883,8.49782 20.5423,0 v 8.49782 z"
       fill="#ee7461"
       id="path3" />
    <path
       d="M 20.5417,20.6254 H 8.43359 L 14.4877,8.4978 Z"
       fill="#e84b93"
       id="path4" />
    <path
       d="M 20.5423,20.6254 V 8.4978 h -6.054 z"
       fill="#cf1d5b"
       id="path5" />
    <path
       d="M 14.4877,8.4978 8.43359,20.6254 V 8.4978 Z"
       fill="#e94846"
       id="path6" />
    <path
       d="M 0,8.4978 H 8.43385 V 20.6253 Z"
       fill="#f18407"
       id="path7" />
    <path
       d="M 8.43385,20.6253 H 0 V 8.4978 Z"
       fill="#ed6e19"
       id="path8" />
    <path
       d="m 20.542,20.6253 h 8.4338 V 8.4978 Z"
       fill="#e2071e"
       id="path9" />
    <path
       d="M 28.9758,8.4978 H 20.542 v 12.1275 z"
       fill="#b7154b"
       id="path10" />
    <path
       d="m 8.43359,20.6252 12.10111,8.9134 0.007,-8.9134 z"
       fill="#ee8ab7"
       id="path11" />
    <path
       d="m 8.43368,20.6252 0.01393,9.9273 c 0.01963,1.07 0.11446,2.0762 0.28066,3.0218 L 20.5347,29.5386 Z"
       fill="#8d6cac"
       id="path12" />
    <path
       d="M 20.5349,29.5386 8.72852,33.5743 c 0.48806,2.7762 1.59798,5.0243 3.27768,6.7886 1.1803,1.3581 2.9726,2.3816 5.5093,2.998 z"
       fill="#7c61a7"
       id="path13" />
    <path
       d="m 17.5174,43.3614 12.0037,-9.7723 c -3.8159,1.2602 -6.5881,0.9759 -8.108,-1.161 -0.5962,-0.8382 -0.8789,-1.8603 -0.8781,-2.8895 l -3.0194,13.8223 z"
       fill="#3b529f"
       id="path14" />
    <path
       d="m 31.1533,42.3101 -1.6324,-8.721 -2.9604,10.1378 c 1.7595,-0.2663 3.2985,-0.7313 4.5928,-1.4168 z"
       fill="#56afe3"
       id="path15" />
    <path
       d="m 22.4837,43.9998 c 1.4666,0.0063 2.8269,-0.0834 4.0767,-0.2726 l 2.9604,-10.1378 -12.011,9.7705 c 1.4173,0.3449 3.0644,0.5642 4.9739,0.6399 z"
       fill="#37398c"
       id="path16" />
    <path
       d="m 59.668,12.501 v 3.8463 h -6.3213 v 19.9152 h -4.758 V 16.3473 H 42.2666 V 12.501 Z"
       fill="#18213B"
       id="path17"
       style="fill:#ffffff" />
    <path
       d="m 70.6125,16.3473 v 5.9574 H 78.6 v 3.779 h -7.9875 v 6.2982 h 9.0073 v 3.8805 H 65.8545 V 12.4668 h 13.7653 v 3.8805 z"
       fill="#18213B"
       id="path18"
       style="fill:#ffffff" />
    <path
       d="m 91.0898,35.65 c -1.3259,-0.5677 -2.3739,-1.3847 -3.144,-2.451 -0.7709,-1.0671 -1.1675,-2.3263 -1.1899,-3.779 h 5.0981 c 0.0681,0.9757 0.4133,1.7478 1.0364,2.3146 0.6232,0.5677 1.4787,0.8511 2.5665,0.8511 1.1102,0 1.9824,-0.266 2.6172,-0.7996 0.6339,-0.5336 0.9517,-1.2309 0.9517,-2.0936 0,-0.7032 -0.2157,-1.2824 -0.6456,-1.7362 -0.4314,-0.4538 -0.9691,-0.8111 -1.6147,-1.0721 -0.6456,-0.261 -1.5351,-0.5503 -2.6677,-0.8685 -1.5418,-0.4538 -2.7931,-0.9018 -3.7565,-1.3448 -0.9625,-0.4421 -1.7898,-1.1112 -2.481,-2.0088 -0.6912,-0.896 -1.0364,-2.0937 -1.0364,-3.5913 0,-1.407 0.351,-2.6321 1.0538,-3.6759 0.702,-1.0439 1.6878,-1.8443 2.9565,-2.4003 1.2688,-0.556 2.7192,-0.8344 4.3506,-0.8344 2.447,0 4.436,0.5959 5.9652,1.7877 1.529,1.191 2.373,2.854 2.532,4.9867 h -5.2346 c -0.0456,-0.817 -0.3908,-1.4918 -1.0363,-2.0255 -0.6456,-0.5327 -1.5011,-0.7995 -2.5657,-0.7995 -0.9294,0 -1.6712,0.2377 -2.2263,0.7147 -0.5559,0.4763 -0.8331,1.1694 -0.8331,2.0762 0,0.6358 0.2091,1.1635 0.6289,1.5833 0.4191,0.4205 0.9401,0.7605 1.5633,1.0214 0.6232,0.2609 1.5011,0.5619 2.6346,0.9018 1.5401,0.4546 2.798,0.9084 3.7722,1.3622 0.974,0.4538 1.812,1.1345 2.515,2.042 0.702,0.9084 1.054,2.0994 1.054,3.5746 0,1.2716 -0.329,2.451 -0.986,3.5406 -0.657,1.0896 -1.62,1.9573 -2.888,2.6039 -1.2699,0.6474 -2.7768,0.9707 -4.521,0.9707 -1.6546,0 -3.144,-0.2834 -4.4692,-0.851 z"
       fill="#18213B"
       id="path19"
       style="fill:#ffffff" />
    <path
       d="m 115.068,34.9351 c -1.858,-1.0439 -3.33,-2.4909 -4.418,-4.3409 -1.088,-1.8493 -1.631,-3.9428 -1.631,-6.2808 0,-2.3146 0.543,-4.3965 1.631,-6.2466 1.088,-1.8492 2.56,-3.2961 4.418,-4.3409 1.858,-1.043 3.897,-1.5657 6.118,-1.5657 2.243,0 4.288,0.5228 6.135,1.5657 1.846,1.0447 3.308,2.4917 4.385,4.3409 1.075,1.8501 1.614,3.932 1.614,6.2466 0,2.338 -0.539,4.4315 -1.614,6.2808 -1.077,1.85 -2.544,3.297 -4.402,4.3409 -1.858,1.0439 -3.898,1.5658 -6.118,1.5658 -2.221,0 -4.26,-0.522 -6.118,-1.5658 z m 9.891,-3.6602 c 1.087,-0.6467 1.937,-1.5708 2.549,-2.7743 0.611,-1.2027 0.917,-2.5981 0.917,-4.1872 0,-1.5882 -0.306,-2.9787 -0.917,-4.1705 -0.612,-1.191 -1.462,-2.1044 -2.549,-2.7401 -1.088,-0.635 -2.345,-0.9533 -3.773,-0.9533 -1.428,0 -2.691,0.3183 -3.79,0.9533 -1.099,0.6358 -1.954,1.5491 -2.566,2.7401 -0.611,1.1918 -0.917,2.5823 -0.917,4.1705 0,1.5891 0.306,2.9845 0.917,4.1872 0.612,1.2035 1.467,2.1276 2.566,2.7743 1.099,0.6474 2.362,0.9707 3.79,0.9707 1.428,0 2.685,-0.3233 3.773,-0.9707 z"
       fill="#18213B"
       id="path20"
       style="fill:#ffffff" />
    <path
       d="m 157.133,31.782 v 4.4805 h -1.48 c -3.475,0 -5.987,-1.3788 -7.536,-4.1357 l -2.786,-4.3425 h -2.237 v 8.4782 h -4.748 V 12.4819 h 10.356 c 4.577,0 8.052,3.3427 8.052,7.7884 0,3.6195 -2.408,6.4453 -5.883,7.2722 l 1.789,2.4477 c 0.826,1.1719 2.03,1.7919 3.51,1.7919 z m -14.039,-8.1341 h 5.505 c 1.858,0 3.27,-1.447 3.27,-3.3427 0,-1.8957 -1.412,-3.3427 -3.27,-3.3427 h -5.505 z"
       fill="#18213B"
       id="path21"
       style="fill:#ffffff" />
    <path
       d="m 166.748,34.9351 c -1.858,-1.0439 -3.33,-2.4909 -4.417,-4.3409 -1.088,-1.8493 -1.632,-3.9428 -1.632,-6.2808 0,-2.3146 0.544,-4.3965 1.632,-6.2466 1.087,-1.8492 2.559,-3.2961 4.417,-4.3409 1.858,-1.043 3.898,-1.5657 6.118,-1.5657 2.244,0 4.289,0.5228 6.136,1.5657 1.846,1.0447 3.307,2.4917 4.383,4.3409 1.077,1.8501 1.615,3.932 1.615,6.2466 0,2.338 -0.538,4.4315 -1.615,6.2808 -1.076,1.85 -2.543,3.297 -4.401,4.3409 -1.858,1.0439 -3.897,1.5658 -6.118,1.5658 -2.22,0 -4.26,-0.522 -6.118,-1.5658 z m 9.891,-3.6602 c 1.088,-0.6467 1.938,-1.5708 2.549,-2.7743 0.612,-1.2027 0.918,-2.5981 0.918,-4.1872 0,-1.5882 -0.306,-2.9787 -0.918,-4.1705 -0.611,-1.191 -1.461,-2.1044 -2.549,-2.7401 -1.088,-0.635 -2.345,-0.9533 -3.773,-0.9533 -1.427,0 -2.691,0.3183 -3.789,0.9533 -1.1,0.6358 -1.954,1.5491 -2.566,2.7401 -0.612,1.1918 -0.918,2.5823 -0.918,4.1705 0,1.5891 0.306,2.9845 0.918,4.1872 0.612,1.2035 1.466,2.1276 2.566,2.7743 1.098,0.6474 2.362,0.9707 3.789,0.9707 1.428,0 2.686,-0.3233 3.773,-0.9707 z"
       fill="#18213B"
       id="path22"
       style="fill:#ffffff" />
  </g>
  <defs
     id="defs22">
    <clipPath
       id="clip0_2961_20931">
      <rect
         width="185"
         height="44"
         fill="#ffffff"
         id="rect22"
         x="0"
         y="0" />
    </clipPath>
  </defs>
</svg>
